<svg xmlns="http://www.w3.org/2000/svg" width="1399.925" height="466.851" viewBox="0 0 1399.925 466.85126"><defs><clipPath id="a"><path d="M0 373.481h1119.944V0H0v373.481z"/></clipPath></defs><g clip-path="url(#a)" transform="matrix(1.25 0 0 -1.25 0 466.851)" fill="#fff"><path d="M166.595 252.313c-3.082.1-5.868 1.11-8.474 2.544h-.001l-18.135 9.02c-4.664 2.32-8.477-.043-8.477-5.25V239.8c0-5.209 3.776-11.437 8.395-13.844l18.298-9.539a9.681 9.681 0 0 1 1.222-.536c2.248-.985 4.619-1.62 7.172-1.624v38.057zM166.595 201.839c-3.082.099-5.868 1.11-8.474 2.545h-.001l-42.82 22.572c-4.663 2.319-8.476-.042-8.476-5.251v-21.237c0-5.208 3.777-11.438 8.394-13.845L158.2 163.53a9.529 9.529 0 0 1 1.222-.535c2.248-.985 4.619-1.62 7.172-1.623v40.466zM166.595 149.178c-3.082.1-5.868 1.111-8.474 2.545h-.001L89.479 189.81c-4.663 2.32-8.476-.043-8.476-5.25v-21.238c0-5.208 3.777-11.437 8.394-13.844l68.804-38.607a9.67 9.67 0 0 1 1.222-.535c2.248-.986 4.619-1.62 7.172-1.624v40.466z"/><path d="M193.946 263.676l-18.873-9.37-.007-.01c-3.08-1.506-5.88-2.066-8.472-1.982v-38.057c2.574-.003 5.33.637 8.33 2.21.021.013.043.022.064.034l19.043 9.914c4.615 2.407 8.394 8.633 8.394 13.84v18.164c0 5.208-3.815 7.573-8.479 5.257M193.946 213.202l-18.873-9.37-.007-.01c-3.08-1.506-5.88-2.066-8.472-1.983v-40.467c2.574-.003 5.33.638 8.33 2.212l.064.033 19.043 9.915c4.615 2.405 8.394 8.631 8.394 13.84v20.572c0 5.208-3.815 7.573-8.479 5.258M193.946 160.541l-18.873-9.37-.007-.01c-3.08-1.505-5.88-2.066-8.472-1.983v-40.466c2.574-.002 5.33.637 8.33 2.212l.064.032 19.043 9.914c4.615 2.407 8.394 8.633 8.394 13.842v20.572c0 5.207-3.815 7.573-8.479 5.257M285.607 180.537h38.519c-.52 5.802-1.992 10.154-4.417 13.056-3.725 4.505-8.553 6.757-14.485 6.757-5.37 0-9.885-1.798-13.544-5.392-3.66-3.595-5.683-8.401-6.073-14.42m38.389-18.902l12.082-1.494c-1.906-7.06-5.435-12.537-10.588-16.434-5.154-3.9-11.736-5.846-19.746-5.846-10.091 0-18.091 3.107-24.002 9.322-5.911 6.212-8.866 14.928-8.866 26.144 0 11.605 2.988 20.612 8.963 27.022 5.976 6.408 13.727 9.613 23.255 9.613 9.224 0 16.759-3.14 22.605-9.42 5.846-6.278 8.769-15.112 8.769-26.5 0-.693-.023-1.734-.066-3.118h-51.444c.432-7.58 2.575-13.381 6.43-17.408 3.854-4.028 8.66-6.042 14.42-6.042 4.288 0 7.946 1.126 10.978 3.379 3.03 2.25 5.434 5.844 7.21 10.781M395.373 164.688l11.498-1.493c-1.257-7.925-4.472-14.13-9.646-18.612-5.175-4.481-11.53-6.721-19.065-6.721-9.441 0-17.029 3.085-22.767 9.256-5.739 6.17-8.607 15.014-8.607 26.534 0 7.448 1.234 13.966 3.702 19.552 2.469 5.587 6.226 9.776 11.271 12.569 5.044 2.793 10.533 4.189 16.467 4.189 7.491 0 13.618-1.894 18.381-5.683 4.764-3.79 7.817-9.17 9.16-16.142l-11.368-1.754c-1.083 4.634-2.999 8.12-5.749 10.458-2.75 2.339-6.073 3.508-9.97 3.508-5.89 0-10.675-2.111-14.356-6.333-3.68-4.223-5.521-10.902-5.521-20.04 0-9.268 1.775-16.001 5.327-20.2 3.55-4.201 8.184-6.301 13.9-6.301 4.59 0 8.422 1.406 11.497 4.222 3.075 2.814 5.024 7.145 5.846 12.99M448.622 208.403h11.691V139.42h-11.691v68.983zm0 26.243h11.691V221.2h-11.691v13.446zM546.46 222.044v13.576h12.537v-10.718c0-5.803-.672-9.982-2.015-12.537-1.861-3.508-4.762-6.149-8.703-7.925l-2.857 4.613c2.338.952 4.08 2.457 5.229 4.514 1.146 2.056 1.786 4.882 1.916 8.477h-6.106zM417.678 228.588V139.42h11.692v95.255l-11.692-6.087zM521.397 154.133c-3.726-4.439-8.142-6.658-13.25-6.658-6.28 0-11.26 3.01-14.94 9.028-2.252 3.681-3.378 9.656-3.378 17.93 0 8.4 1.861 14.818 5.586 19.258 3.723 4.438 8.141 6.658 13.251 6.658 5.067 0 9.386-2.144 12.96-6.43 3.571-4.288 5.358-10.935 5.358-19.942 0-8.79-1.862-15.407-5.587-19.844m15.46 34.85c-1.387 4.372-3.303 8.107-5.749 11.204-2.446 3.094-5.565 5.5-9.354 7.21-3.79 1.71-7.805 2.565-12.048 2.565-7.665 0-13.966-3.097-18.903-9.289v33.992l-11.692-6.087V139.42h10.848v8.64c4.632-6.8 11.02-10.198 19.162-10.198 8.184 0 15.2 3.225 21.046 9.677 5.845 6.452 8.768 15.59 8.768 27.412 0 4.98-.692 9.656-2.078 14.031M265.74 149.878c-2.122-.304-3.833-.455-5.131-.455-1.733 0-3.065.281-3.995.845-.932.562-1.603 1.32-2.014 2.273-.412.952-.617 3.096-.617 6.431v40.338h11.757v9.093h-11.757v24.118l-11.627-6.054v-18.064h-8.574v-9.093h8.574v-39.689c0-7.014.476-11.617 1.429-13.803.952-2.187 2.598-3.952 4.936-5.294 2.339-1.34 5.629-2.013 9.874-2.013 2.598 0 5.542.346 8.834 1.04l-1.69 10.327z"/></g></svg>